<?xml version="1.0" encoding="utf-8"?>
<!-- Generator: Adobe Illustrator 19.0.1, SVG Export Plug-In . SVG Version: 6.00 Build 0)  -->
<svg version="1.1" id="Слой_1" xmlns="http://www.w3.org/2000/svg" xmlns:xlink="http://www.w3.org/1999/xlink" x="0px" y="0px"
	 viewBox="0 0 160 90" style="enable-background:new 0 0 160 90;" xml:space="preserve">
<style type="text/css">
	.st0{fill:#147DC1;}
	.st1{enable-background:new    ;}
</style>
<path id="path6" class="st0" d="M142.4,27.6C136.5-1.2,80.8-3,44.9,18.9v2.4c35.8-18.5,86.7-18.4,91.3,8.1
	c1.6,8.8-3.4,17.9-12.2,23.2v6.9C134.7,55.6,145.6,43,142.4,27.6 M77.2,77.9C52.4,80.2,26.6,76.6,23,57.2c-1.8-9.6,2.6-19.7,8.3-26
	v-3.4c-10.4,9.1-16,20.7-12.8,34.4c4.2,17.5,26.3,27.4,60.1,24.1C92,85,109.6,80.7,121.7,74v-9.5C110.7,71.1,92.4,76.5,77.2,77.9z"
	/>
<path id="path8" class="st0" d="M119.7,23.4h-6.5v29c0,3.4,1.6,6.4,6.5,6.8"/>
<path id="path10" class="st0" d="M42.4,34h-6.5v19c0,3.4,1.6,6.4,6.5,6.8"/>
<rect id="rect12" x="35.9" y="24.3" class="st0" width="6.5" height="6.2"/>
<path id="path14" class="st0" d="M81.3,59.5c-5.3,0-7.5-3.7-7.5-7.3V27h6.4v7h4.9v5.2h-4.9v12.6c0,1.5,0.7,2.3,2.2,2.3h2.6v5.4H81.3
	"/>
<path id="path16" class="st0" d="M98.4,38.9c-2.2,0-3.9,1.1-4.6,2.7c-0.4,0.9-0.6,1.6-0.6,2.8h9.9C102.9,41.6,101.7,38.9,98.4,38.9
	 M93.1,48.8c0,3.3,2.1,5.7,5.7,5.7c2.9,0,4.3-0.8,5.9-2.4l4,3.8c-2.6,2.5-5.2,4-9.9,4c-6.2,0-12.1-3.4-12.1-13.2
	c0-8.4,5.1-13.2,11.9-13.2c6.9,0,10.8,5.6,10.8,12.9v2.3L93.1,48.8"/>
<path id="path18" class="st0" d="M59.9,39.2c1.9,0,2.7,0.9,2.7,2.4v17.9H69V41.7C69,38,67,34,61.4,34H48.1v25.6h6.4V39.2"/>
<g class="st1">
	<path class="st0" d="M125.7,23.3c0.4,0,0.7,0.1,1.1,0.3c0.4,0.2,0.6,0.5,0.8,0.8c0.2,0.4,0.3,0.7,0.3,1.1c0,0.4-0.1,0.7-0.3,1.1
		c-0.2,0.3-0.5,0.6-0.8,0.8c-0.4,0.2-0.7,0.3-1.1,0.3s-0.8-0.1-1.1-0.3c-0.4-0.2-0.6-0.5-0.8-0.8s-0.3-0.7-0.3-1.1
		c0-0.4,0.1-0.7,0.3-1.1c0.2-0.4,0.5-0.6,0.8-0.8C124.9,23.4,125.3,23.3,125.7,23.3z M125.7,23.7c-0.3,0-0.6,0.1-0.9,0.2
		s-0.5,0.4-0.7,0.7c-0.2,0.3-0.3,0.6-0.3,0.9c0,0.3,0.1,0.6,0.2,0.9c0.2,0.3,0.4,0.5,0.7,0.7s0.6,0.2,0.9,0.2s0.6-0.1,0.9-0.2
		s0.5-0.4,0.7-0.7s0.2-0.6,0.2-0.9c0-0.3-0.1-0.6-0.3-0.9c-0.2-0.3-0.4-0.5-0.7-0.7S126,23.7,125.7,23.7z M124.7,26.7v-2.4h0.8
		c0.3,0,0.5,0,0.6,0.1c0.1,0,0.2,0.1,0.3,0.2s0.1,0.2,0.1,0.3c0,0.2-0.1,0.3-0.2,0.5c-0.1,0.1-0.3,0.2-0.5,0.2
		c0.1,0,0.2,0.1,0.2,0.1c0.1,0.1,0.2,0.2,0.4,0.5l0.3,0.5h-0.5l-0.2-0.4c-0.2-0.3-0.3-0.5-0.4-0.5c-0.1-0.1-0.2-0.1-0.3-0.1h-0.2v1
		H124.7z M125.1,25.4h0.5c0.2,0,0.4,0,0.5-0.1s0.1-0.2,0.1-0.3c0-0.1,0-0.1-0.1-0.2c0-0.1-0.1-0.1-0.2-0.1c-0.1,0-0.2,0-0.4,0h-0.4
		V25.4z"/>
</g>
<g>
</g>
<g>
</g>
<g>
</g>
<g>
</g>
<g>
</g>
<g>
</g>
</svg>
