<?xml version="1.0" encoding="UTF-8"?>
<!DOCTYPE svg PUBLIC "-//W3C//DTD SVG 1.1//EN" "http://www.w3.org/Graphics/SVG/1.1/DTD/svg11.dtd">
<!-- Creator: CorelDRAW X6 -->
<svg xmlns="http://www.w3.org/2000/svg" xml:space="preserve" width="160px" height="90px" version="1.1" style="shape-rendering:geometricPrecision; text-rendering:geometricPrecision; image-rendering:optimizeQuality; fill-rule:evenodd; clip-rule:evenodd"
viewBox="0 0 160 90"
 xmlns:xlink="http://www.w3.org/1999/xlink">
 <defs>
  <style type="text/css">
   <![CDATA[
    .fil0 {fill:#373435}
    .fil1 {fill:#CF3034}
   ]]>
  </style>
 </defs>
 <g id="Слой_x0020_1">
  <metadata id="CorelCorpID_0Corel-Layer"/>
  <g id="_214772688">
   <path class="fil0" d="M122 62l-24 0 0 -33 10 0 0 23 14 0 0 9zm35 -22l-8 0c-1,0 0,0 -1,-1 0,0 -1,-1 -1,-2 -1,-1 -2,-1 -3,-1 -2,0 -3,0 -5,2 -1,1 -2,2 -2,3l-1 3 0 2c0,3 1,5 2,7 1,1 1,1 1,1 1,1 2,1 4,1 2,0 3,-1 4,-2 1,-1 1,0 1,-1l-4 0 0 -7 13 0 0 17 -6 0 0 -4c0,1 -3,3 -3,3 -1,0 -2,1 -3,1 -2,0 -3,1 -4,1 -1,0 -3,0 -4,0 -1,0 -2,0 -3,-1 0,0 -1,0 -1,0 -1,0 -2,-1 -3,-2 -1,-1 -2,-2 -3,-3 -2,-2 -3,-6 -3,-11 0,-5 1,-9 4,-12 1,-2 3,-3 5,-4 1,0 2,-1 3,-1 1,0 2,0 4,0 2,0 3,0 5,0 1,0 1,0 2,0 0,0 1,0 1,0 0,0 1,0 1,1 2,1 3,3 4,4l1 2c0,0 0,1 1,2l0 2z"/>
   <path class="fil1" d="M35 30l2 0 0 27 7 0 0 2 -7 0 0 0 -2 0 0 -29zm2 43c15,0 27,-12 27,-27 0,0 0,-1 0,-1l-1 0 -19 0 0 2 17 0c0,13 -11,24 -25,24 -14,0 -25,-11 -25,-25 0,-13 11,-24 24,-25l0 -2c-15,1 -26,13 -26,27 0,15 12,27 27,27zm-12 -33c3,0 5,-2 5,-5 0,-3 -2,-5 -5,-5 -3,0 -5,2 -5,5 0,3 2,5 5,5zm12 39c18,0 33,-15 33,-33 0,-18 -15,-33 -33,-33 -18,0 -33,15 -33,33 0,18 15,33 33,33z"/>
  </g>
 </g>
</svg>
