<?xml version="1.0" encoding="utf-8"?>
<!-- Generator: Adobe Illustrator 19.0.1, SVG Export Plug-In . SVG Version: 6.00 Build 0)  -->
<svg version="1.1" id="Слой_1" xmlns="http://www.w3.org/2000/svg" xmlns:xlink="http://www.w3.org/1999/xlink" x="0px" y="0px"
	 viewBox="0 0 160 90" style="enable-background:new 0 0 160 90;" xml:space="preserve">
<style type="text/css">
	.st0{fill:#716E6F;}
	.st1{fill:#E95322;}
	.st2{fill:#85BC33;}
	.st3{fill:#2BAAE2;}
	.st4{fill:#FBBC10;}
</style>
<path id="path5056" class="st0" d="M160,42.8V40h-3.5v-4.4l-0.1,0l-3.3,1l-0.1,0V40h-5.2v-1.8c0-0.9,0.2-1.5,0.6-2
	c0.4-0.4,0.9-0.7,1.6-0.7c0.5,0,1,0.1,1.5,0.3l0.1,0.1v-3l-0.1,0c-0.5-0.2-1.1-0.3-1.9-0.3c-1,0-1.9,0.2-2.8,0.7
	c-0.8,0.4-1.4,1.1-1.9,1.9c-0.4,0.8-0.7,1.7-0.7,2.7v2h-2.4v2.8h2.4v11.9h3.5V42.8h5.2v7.5c0,3.1,1.5,4.7,4.3,4.7
	c0.5,0,1-0.1,1.5-0.2c0.5-0.1,0.9-0.2,1.1-0.3l0,0v-2.8l-0.1,0.1c-0.2,0.1-0.4,0.2-0.7,0.3c-0.3,0.1-0.5,0.1-0.7,0.1
	c-0.7,0-1.2-0.2-1.5-0.5c-0.3-0.4-0.5-1-0.5-1.9v-6.9L160,42.8L160,42.8z M134.1,52.1c-1.3,0-2.3-0.4-3-1.2c-0.7-0.8-1.1-2-1.1-3.5
	c0-1.6,0.4-2.8,1.1-3.6c0.7-0.8,1.7-1.3,2.9-1.3c1.2,0,2.2,0.4,2.9,1.2c0.7,0.8,1,2,1,3.6c0,1.6-0.3,2.8-1,3.6
	C136.4,51.7,135.4,52.1,134.1,52.1 M134.3,39.6c-2.4,0-4.3,0.7-5.7,2.1c-1.4,1.4-2.1,3.3-2.1,5.8c0,2.3,0.7,4.1,2,5.5
	c1.3,1.3,3.2,2,5.4,2c2.3,0,4.2-0.7,5.6-2.1c1.4-1.4,2.1-3.3,2.1-5.7c0-2.3-0.7-4.2-1.9-5.5C138.4,40.3,136.6,39.6,134.3,39.6
	 M120.9,39.6c-1.6,0-3,0.4-4,1.3c-1,0.8-1.6,1.9-1.6,3.3c0,0.7,0.1,1.3,0.3,1.8c0.2,0.5,0.6,1,1,1.4c0.5,0.4,1.2,0.8,2.1,1.2
	c0.8,0.3,1.4,0.6,1.8,0.8c0.4,0.2,0.6,0.4,0.8,0.6c0.1,0.2,0.2,0.5,0.2,0.8c0,1-0.7,1.5-2.3,1.5c-0.6,0-1.2-0.1-1.9-0.3
	c-0.7-0.2-1.4-0.6-2-1l-0.1-0.1v3.4l0.1,0c0.5,0.2,1.1,0.4,1.9,0.6c0.7,0.2,1.4,0.2,2,0.2c1.8,0,3.2-0.4,4.3-1.3
	c1.1-0.8,1.6-2,1.6-3.3c0-1-0.3-1.8-0.9-2.5c-0.6-0.7-1.5-1.3-2.9-1.9c-1.1-0.4-1.8-0.8-2.1-1.1c-0.3-0.3-0.4-0.6-0.4-1.1
	c0-0.4,0.2-0.8,0.5-1c0.4-0.3,0.9-0.4,1.5-0.4c0.6,0,1.2,0.1,1.8,0.3c0.6,0.2,1.1,0.4,1.5,0.7l0.1,0.1v-3.2l-0.1,0
	c-0.4-0.2-0.9-0.3-1.6-0.4C122,39.7,121.4,39.6,120.9,39.6 M106.2,52.1c-1.3,0-2.3-0.4-3-1.2c-0.7-0.8-1.1-2-1.1-3.5
	c0-1.6,0.4-2.8,1.1-3.6c0.7-0.8,1.7-1.3,2.9-1.3c1.2,0,2.2,0.4,2.9,1.2c0.7,0.8,1,2,1,3.6c0,1.6-0.3,2.8-1,3.6
	C108.4,51.7,107.4,52.1,106.2,52.1 M106.3,39.6c-2.4,0-4.3,0.7-5.7,2.1c-1.4,1.4-2.1,3.3-2.1,5.8c0,2.3,0.7,4.1,2,5.5
	c1.3,1.3,3.2,2,5.4,2c2.3,0,4.2-0.7,5.6-2.1c1.4-1.4,2.1-3.3,2.1-5.7c0-2.3-0.7-4.2-1.9-5.5C110.4,40.3,108.6,39.6,106.3,39.6
	 M93.2,42.5V40h-3.5v14.7h3.5v-7.5c0-1.3,0.3-2.3,0.9-3.1c0.6-0.8,1.3-1.2,2.2-1.2c0.3,0,0.7,0.1,1,0.2c0.4,0.1,0.6,0.2,0.8,0.3
	l0.1,0.1v-3.5l-0.1,0c-0.3-0.1-0.8-0.2-1.4-0.2c-0.9,0-1.6,0.3-2.3,0.8C94,41,93.6,41.7,93.2,42.5C93.3,42.5,93.2,42.5,93.2,42.5z
	 M83.6,39.6c-1.6,0-3,0.3-4.2,1c-1.2,0.7-2.1,1.6-2.8,2.8c-0.6,1.2-1,2.6-1,4.2c0,1.4,0.3,2.7,0.9,3.8c0.6,1.1,1.5,2,2.6,2.6
	c1.1,0.6,2.4,0.9,3.8,0.9c1.6,0,3-0.3,4.2-1l0,0v-3.2L87,50.9c-0.5,0.4-1.1,0.7-1.7,0.9c-0.6,0.2-1.2,0.3-1.7,0.3
	c-1.4,0-2.4-0.4-3.2-1.3c-0.8-0.8-1.2-2-1.2-3.5c0-1.5,0.4-2.7,1.2-3.6c0.8-0.9,1.9-1.3,3.2-1.3c1.1,0,2.2,0.4,3.3,1.1l0.1,0.1v-3.3
	l0,0c-0.4-0.2-0.9-0.4-1.6-0.5C84.9,39.7,84.2,39.6,83.6,39.6 M73.3,40h-3.5v14.7h3.5V40z M71.6,33.7c-0.6,0-1.1,0.2-1.5,0.6
	c-0.4,0.4-0.6,0.9-0.6,1.4c0,0.6,0.2,1,0.6,1.4c0.4,0.4,0.9,0.6,1.5,0.6c0.6,0,1.1-0.2,1.5-0.6c0.4-0.4,0.6-0.8,0.6-1.4
	c0-0.6-0.2-1-0.6-1.4C72.7,33.9,72.2,33.7,71.6,33.7 M63,38.9v15.7h3.5V34.2h-4.9l-6.2,15.2l-6-15.2h-5.1v20.5h3.3V38.9h0.1
	l6.3,15.8h2.5l6.2-15.7H63L63,38.9z"/>
<path id="path5058" class="st1" d="M16.2,43.6H0V27.3h16.2V43.6z"/>
<path id="path5060" class="st2" d="M34.2,43.6H17.9V27.3h16.2V43.6z"/>
<path id="path5062" class="st3" d="M16.2,61.5H0V45.3h16.2V61.5z"/>
<path id="path5064" class="st4" d="M34.2,61.5H17.9V45.3h16.2V61.5z"/>
<g>
</g>
<g>
</g>
<g>
</g>
<g>
</g>
<g>
</g>
<g>
</g>
</svg>
