<?xml version="1.0" encoding="utf-8"?>
<!-- Generator: Adobe Illustrator 19.0.1, SVG Export Plug-In . SVG Version: 6.00 Build 0)  -->
<svg version="1.1" id="Слой_1" xmlns="http://www.w3.org/2000/svg" xmlns:xlink="http://www.w3.org/1999/xlink" x="0px" y="0px"
	 viewBox="0 0 380 90" style="enable-background:new 0 0 380 90;" xml:space="preserve">
<style type="text/css">
	.st0{fill:#716E6F;}
	.st1{fill:#E95322;}
	.st2{fill:#85BC33;}
	.st3{fill:#2BAAE2;}
	.st4{fill:#FBBC10;}
</style>
<path id="path5056" class="st0" d="M370.9,42.3v-6.4H363V26l-0.3,0.1l-7.4,2.3l-0.1,0v7.5h-11.7v-4.2c0-1.9,0.4-3.4,1.3-4.4
	c0.9-1,2.1-1.5,3.6-1.5c1.1,0,2.3,0.3,3.4,0.8l0.3,0.1V20l-0.1-0.1c-1.1-0.4-2.6-0.6-4.4-0.6c-2.3,0-4.4,0.5-6.2,1.5
	c-1.8,1-3.3,2.4-4.3,4.2c-1,1.8-1.5,3.9-1.5,6.2v4.6H330v6.4h5.5v26.8h7.9V42.3h11.7v17c0,7,3.3,10.6,9.8,10.6
	c1.1,0,2.2-0.1,3.4-0.4c1.2-0.3,2-0.5,2.4-0.8l0.1-0.1v-6.4l-0.3,0.2c-0.4,0.3-1,0.5-1.6,0.7c-0.6,0.2-1.2,0.3-1.6,0.3
	c-1.5,0-2.7-0.4-3.4-1.2c-0.7-0.8-1.1-2.3-1.1-4.3V42.3L370.9,42.3L370.9,42.3z M312.4,63.4c-2.9,0-5.1-1-6.7-2.8
	c-1.6-1.9-2.4-4.6-2.4-8c0-3.5,0.8-6.3,2.4-8.2c1.6-1.9,3.8-2.9,6.7-2.9c2.7,0,4.9,0.9,6.5,2.7c1.6,1.8,2.4,4.6,2.4,8.1
	c0,3.6-0.7,6.4-2.2,8.2C317.5,62.5,315.3,63.4,312.4,63.4 M312.7,35.1c-5.5,0-9.8,1.6-12.9,4.8c-3.1,3.2-4.7,7.5-4.7,13
	c0,5.2,1.5,9.4,4.6,12.4c3,3,7.1,4.6,12.2,4.6c5.3,0,9.6-1.6,12.7-4.8c3.1-3.2,4.7-7.5,4.7-12.9c0-5.3-1.5-9.5-4.4-12.5
	C322,36.6,317.9,35.1,312.7,35.1 M282.4,35.1c-3.7,0-6.8,1-9.1,2.8c-2.4,1.9-3.6,4.4-3.6,7.4c0,1.6,0.3,2.9,0.8,4.1
	c0.5,1.2,1.3,2.2,2.4,3.1c1,0.9,2.7,1.8,4.8,2.7c1.8,0.7,3.1,1.4,4,1.9c0.8,0.5,1.4,1,1.8,1.4c0.3,0.5,0.5,1.1,0.5,1.9
	c0,2.2-1.7,3.3-5.1,3.3c-1.3,0-2.7-0.3-4.3-0.8c-1.6-0.5-3.1-1.3-4.4-2.2l-0.3-0.2V68l0.1,0.1c1.1,0.5,2.5,1,4.2,1.3
	c1.7,0.3,3.2,0.5,4.5,0.5c4,0,7.3-1,9.7-2.8c2.4-1.9,3.6-4.4,3.6-7.5c0-2.2-0.7-4.2-1.9-5.7c-1.3-1.5-3.5-2.9-6.6-4.2
	c-2.5-1-4-1.8-4.7-2.4c-0.6-0.6-0.9-1.5-0.9-2.6c0-1,0.4-1.7,1.2-2.4c0.8-0.6,1.9-0.9,3.4-0.9c1.3,0,2.7,0.2,4,0.6
	c1.3,0.4,2.5,1,3.5,1.6l0.3,0.2v-7.2l-0.1-0.1c-0.9-0.4-2.1-0.7-3.5-1C284.9,35.2,283.6,35.1,282.4,35.1 M249.1,63.4
	c-2.9,0-5.1-1-6.7-2.8c-1.6-1.9-2.4-4.6-2.4-8c0-3.5,0.8-6.3,2.4-8.2c1.6-1.9,3.8-2.9,6.7-2.9c2.7,0,4.9,0.9,6.5,2.7
	c1.6,1.8,2.4,4.6,2.4,8.1c0,3.6-0.7,6.4-2.2,8.2C254.2,62.5,252,63.4,249.1,63.4 M249.5,35.1c-5.5,0-9.8,1.6-12.9,4.8
	c-3.1,3.2-4.7,7.5-4.7,13c0,5.2,1.5,9.4,4.6,12.4c3,3,7.1,4.6,12.2,4.6c5.3,0,9.6-1.6,12.7-4.8c3.1-3.2,4.7-7.5,4.7-12.9
	c0-5.3-1.5-9.5-4.4-12.5C258.7,36.6,254.6,35.1,249.5,35.1 M219.9,41.6v-5.7h-7.8v33.2h7.8v-17c0-2.9,0.7-5.3,1.9-7
	c1.3-1.8,3-2.7,5-2.7c0.7,0,1.5,0.1,2.3,0.3c0.8,0.2,1.5,0.5,1.8,0.7l0.3,0.2v-7.9l-0.1-0.1c-0.7-0.3-1.8-0.5-3.1-0.5
	c-2,0-3.7,0.6-5.2,1.9C221.7,38.3,220.7,39.8,219.9,41.6C220,41.6,219.9,41.6,219.9,41.6z M198.2,35.1c-3.6,0-6.8,0.8-9.5,2.3
	c-2.7,1.5-4.8,3.7-6.3,6.4c-1.4,2.7-2.1,6-2.1,9.5c0,3.1,0.7,6,2.1,8.5c1.4,2.5,3.4,4.5,5.8,5.9c2.5,1.4,5.4,2.1,8.5,2.1
	c3.7,0,6.9-0.7,9.4-2.2l0.1-0.1v-7.1l-0.3,0.2c-1.1,0.8-2.4,1.5-3.8,2c-1.4,0.5-2.6,0.7-3.7,0.7c-3.1,0-5.5-1-7.3-2.8
	c-1.8-1.9-2.7-4.5-2.7-7.9c0-3.4,0.9-6.1,2.8-8.1c1.9-2,4.3-3,7.3-3c2.6,0,5.1,0.9,7.4,2.6l0.3,0.2v-7.5l-0.1-0.1
	c-0.9-0.5-2.1-0.9-3.6-1.2C201,35.2,199.6,35.1,198.2,35.1 M174.9,35.9h-7.8v33.2h7.8V35.9z M171.1,21.8c-1.3,0-2.4,0.4-3.3,1.3
	c-0.9,0.9-1.4,2-1.4,3.3c0,1.3,0.5,2.3,1.4,3.2c0.9,0.8,2,1.3,3.3,1.3c1.3,0,2.4-0.4,3.4-1.3c0.9-0.8,1.4-1.9,1.4-3.2
	c0-1.2-0.5-2.3-1.4-3.2C173.6,22.2,172.4,21.8,171.1,21.8 M151.6,33.4v35.6h8V22.8h-11l-14,34.4L121,22.8h-11.5v46.3h7.5V33.4h0.3
	l14.4,35.6h5.6l14.1-35.6L151.6,33.4L151.6,33.4z"/>
<path id="path5058" class="st1" d="M45.8,44H9.1V7.3h36.7V44z"/>
<path id="path5060" class="st2" d="M86.3,44H49.6V7.3h36.7V44z"/>
<path id="path5062" class="st3" d="M45.8,84.5H9.1V47.8h36.7V84.5z"/>
<path id="path5064" class="st4" d="M86.3,84.5H49.6V47.8h36.7V84.5z"/>
</svg>
