<?xml version="1.0" encoding="utf-8"?>
<!-- Generator: Adobe Illustrator 19.0.1, SVG Export Plug-In . SVG Version: 6.00 Build 0)  -->
<svg version="1.1" id="Слой_1" xmlns="http://www.w3.org/2000/svg" xmlns:xlink="http://www.w3.org/1999/xlink" x="0px" y="0px"
	 viewBox="0 0 160 90" style="enable-background:new 0 0 160 90;" xml:space="preserve">
<style type="text/css">
	.st0{fill-rule:evenodd;clip-rule:evenodd;fill:#C00D0D;}
	.st1{fill-rule:evenodd;clip-rule:evenodd;fill:#706F6F;}
	.st2{fill-rule:evenodd;clip-rule:evenodd;fill:none;stroke:#DADADA;stroke-width:0.15;}
</style>
<g>
	<path class="st0" d="M141,40.4l-10.8,8l-2-3.1l8.5-6.3l0-0.6c-0.2-1.7-1-2.5-2.5-2.5c-1.7,0-3.2,0.9-4.6,2.7
		c-1.4,1.8-2.5,3.9-3.4,6.3c-0.9,2.4-1.3,4.5-1.2,6.3c0,1.9,0.9,2.8,2.5,2.8c0.5,0,1.1-0.1,1.8-0.4c0.7-0.3,1.2-0.7,1.7-1.2l0.5-0.5
		l3.2,2.3l-1.1,1c-3,2.8-5.7,4.1-8.2,4.1c-2.1,0-3.6-0.7-4.4-2.1c-0.8-1.4-1.1-3.3-0.9-5.5c0.2-2.2,0.7-4.5,1.6-6.9
		c0.9-2.5,2.1-4.7,3.4-6.8c1.3-2.1,2.9-3.8,4.7-5.1c1.8-1.4,3.8-2.1,6-2.1c1.5,0,2.7,0.4,3.6,1.2c0.9,0.8,1.5,1.8,1.7,3.1
		c0.3,1.3,0.3,2.6,0,4.1L141,40.4L141,40.4z"/>
	<path class="st1" d="M115.2,45.1h-10.1l1.8-5h12.5l-1.8,5H115.2z M101.5,42.1l-5.9,16.3h-4L97,43.7l0.3-0.8
		c1.7-4.7,1.4-7.1-0.9-7.1c-3.3,0-5.8,2.5-7.6,7.5l-5.5,15.1h-4.1l10-27.6h4.1l-1,2.6c0.9-0.8,1.9-1.5,3.1-2
		c1.2-0.5,2.3-0.8,3.4-0.8C103.4,30.7,104.3,34.5,101.5,42.1L101.5,42.1z M82.5,40.4l-10.8,8l-2-3.1l8.5-6.3l0-0.6
		c-0.2-1.7-1-2.5-2.5-2.5c-1.7,0-3.2,0.9-4.6,2.7c-1.4,1.8-2.5,3.9-3.4,6.3c-0.9,2.4-1.3,4.5-1.2,6.3c0,1.9,0.9,2.8,2.5,2.8
		c0.5,0,1.1-0.1,1.8-0.4c0.7-0.3,1.2-0.7,1.7-1.2L73,52l3.2,2.3l-1.1,1c-3,2.8-5.7,4.1-8.2,4.1c-2.1,0-3.6-0.7-4.4-2.1
		c-0.8-1.4-1.1-3.3-0.9-5.5c0.2-2.2,0.7-4.5,1.6-6.9c0.9-2.5,2.1-4.7,3.4-6.8c1.3-2.1,2.9-3.8,4.7-5.1c1.8-1.4,3.8-2.1,6-2.1
		c1.5,0,2.7,0.4,3.6,1.2c0.9,0.8,1.5,1.8,1.7,3.1c0.3,1.3,0.3,2.6,0,4.1L82.5,40.4L82.5,40.4z M51.2,33.3l1-0.8
		c1.4-1.2,2.9-1.9,4.5-2c2,0,3.3,0.7,4.1,2c0.8,1.3,1.1,3,0.9,5c-0.2,2-0.7,4.1-1.5,6.4c-3.6,9.8-8.1,14.9-13.5,15.2
		c-2.1,0-3.6-0.6-4.3-1.9l-5.2,14.3h-4L48,30.7h4.1L51.2,33.3L51.2,33.3z M54.6,35.9h-0.1c-1.4,0-2.5,0.4-3.5,1.2
		c-0.9,0.8-1.7,1.8-2.4,3c-0.6,1.3-1.3,3-2.1,5.1c-0.7,2-1.2,3.5-1.5,4.6c-0.3,1.1-0.2,2.1,0.1,3c0.3,0.9,1.2,1.3,2.7,1.4
		c1.6,0,3-0.8,4.4-2.5c1.3-1.7,2.4-3.6,3.2-5.8c1-2.7,1.6-5,1.7-7C57.4,36.9,56.5,35.9,54.6,35.9L54.6,35.9z M34.7,30.4
		c2.4,0,4.1,0.7,4.9,2c0.9,1.3,1.2,3,0.9,5c-0.3,2-0.9,4.4-1.8,7.1c-1.5,4.1-3.4,7.5-5.7,10.3c-2.3,2.8-5.1,4.2-8.5,4.2
		c-2.5,0-4.2-0.7-5.1-2.1c-0.9-1.4-1.2-3.1-0.9-5.2c0.3-2.1,0.9-4.4,1.8-7C23.9,35.2,28.7,30.4,34.7,30.4L34.7,30.4z M24.5,45.1
		c-0.9,2.4-1.3,4.6-1.3,6.4c0,1.8,1,2.7,2.9,2.7c3.2,0,6-3.2,8.3-9.6c0.9-2.6,1.4-4.6,1.4-6.2c0-1.6-1-2.4-3-2.5
		C29.7,35.9,26.9,38.9,24.5,45.1L24.5,45.1z"/>
</g>
<rect x="3.1" y="15.7" class="st2" width="153.7" height="58.6"/>
<g>
</g>
<g>
</g>
<g>
</g>
<g>
</g>
<g>
</g>
<g>
</g>
</svg>
