<?xml version="1.0" encoding="utf-8"?>
<!-- Generator: Adobe Illustrator 19.0.1, SVG Export Plug-In . SVG Version: 6.00 Build 0)  -->
<svg version="1.1" id="Слой_1" xmlns="http://www.w3.org/2000/svg" xmlns:xlink="http://www.w3.org/1999/xlink" x="0px" y="0px"
	 viewBox="0 0 160 90" style="enable-background:new 0 0 160 90;" xml:space="preserve">
<style type="text/css">
	.st0{fill-rule:evenodd;clip-rule:evenodd;fill:#0059A2;}
</style>
<g>
	<path class="st0" d="M139.1,53.8c13.3-6.5,20.7-14,19.6-20.1c-2.3-12.9-41.5-15-82-7.8C58.2,29.1,40.5,34.1,28.5,39
		c0.6,0,1.1,0,1.1,0c5.2,0.1,4.9,3.4,4.9,3.4l0,2h-4.1V43c0-0.9-1.2-1-1.2-1c-0.9,0-1.1,0.6-1.1,0.6c-0.5,0.9,0.3,1.7,0.3,1.7
		c0.4,0.5,2.6,1.5,2.6,1.5c0.7,0.3,1.8,1,1.8,1c2.1,1.3,1.9,3.7,1.9,3.7v1.6c-0.3,3.9-5.7,3.8-5.7,3.8c-5.7,0-5.5-3.7-5.5-3.7v-1.9
		h4.4v1.3c0,1.1,1.1,1.2,1.1,1.2c1.2,0,1.3-1.1,1.3-1.1c0.2-1.1-1.1-1.8-1.1-1.8c-1.2-0.6-3.3-1.7-3.3-1.7c-1-0.7-1.4-1.3-1.4-1.3
		c-0.7-0.9-0.7-2.3-0.7-2.3v-1.2c0-1.7,0.5-2.2,0.5-2.2c0,0,0-0.1,0.1-0.1C9.6,47.6,0.5,55.5,1.7,62C4,75.2,41,77,84.5,70.3
		c20-3.1,37.5-8.8,50.7-14.6c-0.1,0-0.2,0-0.3,0c0,0-5.3,0.4-5.5-3.9v-8.3c0,0-0.7-4.6,5.3-4.6c0,0,3.9-0.1,4.9,2.2
		c0,0,0.5,0.6,0.4,3.2h-4.1v-1.3c0,0,0-1.1-1.1-1.1c0,0-1.1,0-1.1,0.9v8.6c0,0,0,1.2,1.2,1.2c0,0,1,0,1-1.2v-2.5h-1.1v-2.3h5.3v4.9
		c0,0,0,1-0.4,1.6C139.6,53,139.2,53.7,139.1,53.8L139.1,53.8z M123.9,55.2H119l-4.4-9.6h-0.2l0.2,9.6h-4.1V39.5h5l4.2,9.5h0.2
		l-0.3-9.5h4.1V55.2L123.9,55.2z M98.2,51.3c0,1.3,1.3,1.3,1.3,1.3c1.2,0,1.1-1.3,1.1-1.3V39.4h4.4v12c0,4.3-5.5,4.3-5.5,4.3
		c-6.3,0-5.8-4.5-5.8-4.5V39.4h4.5L98.2,51.3L98.2,51.3z M84.4,44.3V43c0-0.9-1.2-1-1.2-1c-0.9,0-1.1,0.6-1.1,0.6
		c-0.5,0.9,0.3,1.7,0.3,1.7c0.4,0.5,2.6,1.5,2.6,1.5c0.7,0.3,1.8,1,1.8,1c2.1,1.3,1.9,3.7,1.9,3.7v1.6c-0.3,3.9-5.7,3.8-5.7,3.8
		c-5.7,0-5.5-3.7-5.5-3.7v-1.9h4.4v1.3c0,1.1,1.1,1.2,1.1,1.2c1.2,0,1.3-1.1,1.3-1.1c0.2-1.1-1.1-1.8-1.1-1.8
		c-1.2-0.6-3.3-1.7-3.3-1.7c-1-0.7-1.4-1.3-1.4-1.3c-0.7-0.9-0.7-2.3-0.7-2.3v-1.2c0-1.7,0.5-2.2,0.5-2.2c1.2-2.2,5.2-1.9,5.2-1.9
		c5.2,0.1,4.9,3.4,4.9,3.4l0,2H84.4L84.4,44.3z M62.8,39.5l1.3,8.6h0.3l1.4-8.6h6.8l0.4,15.7h-4.1l-0.1-11.8h-0.3l-2.1,11.8h-4.3
		L60,43.4h-0.3l0,11.8h-4.1l0.3-15.7H62.8L62.8,39.5z M46.7,55.2L45.1,43h-0.4l-1.6,12.2h-4.4l2.7-15.7h6.9l2.7,15.7H46.7L46.7,55.2
		z"/>
</g>
</svg>
