<?xml version="1.0" encoding="utf-8"?>
<!-- Generator: Adobe Illustrator 19.0.1, SVG Export Plug-In . SVG Version: 6.00 Build 0)  -->
<svg version="1.1" id="Слой_1" xmlns="http://www.w3.org/2000/svg" xmlns:xlink="http://www.w3.org/1999/xlink" x="0px" y="0px"
	 viewBox="0 0 160 90" style="enable-background:new 0 0 160 90;" xml:space="preserve">
<style type="text/css">
	.st0{fill:#302D7F;}
	.st1{fill:#010202;}
	.st2{fill:#DD1823;}
</style>
<g>
	<path class="st0" d="M17.5,31.7v8.1h-0.6c-0.2-1.5-0.6-2.8-1.1-3.7c-0.6-0.9-1.3-1.6-2.3-2.2c-1-0.6-2-0.8-3.1-0.8
		c-1.2,0-2.2,0.4-3,1.1s-1.2,1.6-1.2,2.5c0,0.7,0.2,1.4,0.7,2c0.7,0.8,2.4,2,5.1,3.5c2.2,1.2,3.7,2.1,4.5,2.7
		c0.8,0.6,1.4,1.4,1.9,2.2s0.7,1.7,0.7,2.7c0,1.8-0.7,3.3-2.1,4.6c-1.4,1.3-3.2,1.9-5.4,1.9c-0.7,0-1.3-0.1-1.9-0.2
		c-0.3-0.1-1.1-0.3-2.3-0.6c-1.1-0.4-1.9-0.6-2.1-0.6S4.9,55,4.7,55.2c-0.2,0.2-0.3,0.6-0.4,1.1H3.7v-8.1h0.6c0.3,1.7,0.7,3,1.2,3.8
		c0.5,0.8,1.3,1.5,2.3,2.1c1.1,0.6,2.2,0.8,3.4,0.8c1.5,0,2.6-0.4,3.4-1.1c0.8-0.8,1.2-1.7,1.2-2.7c0-0.6-0.2-1.2-0.5-1.7
		c-0.3-0.6-0.8-1.1-1.5-1.6c-0.5-0.3-1.7-1.1-3.7-2.2c-2-1.1-3.4-2-4.3-2.7s-1.5-1.4-1.9-2.2c-0.5-0.8-0.7-1.7-0.7-2.6
		c0-1.7,0.6-3.2,1.9-4.3c1.3-1.2,2.9-1.8,5-1.8c1.2,0,2.6,0.3,3.9,0.9c0.6,0.3,1.1,0.5,1.4,0.5c0.3,0,0.6-0.1,0.7-0.3
		c0.2-0.2,0.3-0.6,0.5-1.1h0.6V31.7z"/>
	<path class="st0" d="M31.2,40.7v-0.4h5.5v0.4h-0.6c-0.6,0-1.1,0.3-1.4,0.8c-0.2,0.2-0.2,0.8-0.2,1.7v6.4c0,1.6-0.2,2.8-0.5,3.7
		c-0.3,0.8-0.9,1.6-1.9,2.3c-0.9,0.6-2.1,0.9-3.7,0.9c-1.7,0-3-0.3-3.9-0.9c-0.9-0.6-1.5-1.4-1.9-2.4c-0.2-0.7-0.4-2-0.4-3.9V43
		c0-1-0.1-1.6-0.4-1.9c-0.3-0.3-0.7-0.5-1.3-0.5h-0.6v-0.4h6.7v0.4h-0.6c-0.6,0-1.1,0.2-1.4,0.6c-0.2,0.3-0.3,0.8-0.3,1.7v6.8
		c0,0.6,0.1,1.3,0.2,2.1c0.1,0.8,0.3,1.4,0.6,1.9c0.3,0.5,0.7,0.8,1.3,1.1s1.2,0.5,2,0.5c1,0,2-0.2,2.8-0.7s1.4-1,1.7-1.7
		c0.3-0.7,0.5-1.9,0.5-3.5V43c0-1-0.1-1.6-0.3-1.9c-0.3-0.3-0.7-0.5-1.4-0.5L31.2,40.7L31.2,40.7z"/>
	<path class="st0" d="M41.7,48.6v4.6c0,1,0.1,1.6,0.3,1.9c0.3,0.3,0.7,0.5,1.3,0.5H44v0.4h-6.7v-0.4h0.6c0.7,0,1.1-0.2,1.4-0.7
		c0.2-0.2,0.2-0.8,0.2-1.7V43c0-1-0.1-1.6-0.3-1.9c-0.3-0.3-0.7-0.5-1.4-0.5h-0.6v-0.4H43c1.4,0,2.5,0.2,3.3,0.5
		c0.8,0.3,1.5,0.8,2,1.5c0.6,0.7,0.8,1.5,0.8,2.4c0,1.3-0.4,2.3-1.2,3.2c-0.8,0.8-2,1.2-3.5,1.2c-0.4,0-0.8,0-1.2-0.1
		C42.7,48.8,42.3,48.7,41.7,48.6L41.7,48.6z M41.7,47.9c0.4,0.1,0.8,0.1,1.1,0.2c0.3,0.1,0.6,0.1,0.8,0.1c0.8,0,1.5-0.3,2-1
		c0.6-0.6,0.8-1.4,0.8-2.4c0-0.7-0.1-1.3-0.4-1.9c-0.3-0.6-0.7-1-1.2-1.3c-0.5-0.3-1.1-0.5-1.7-0.5c-0.4,0-0.9,0.1-1.5,0.2
		L41.7,47.9L41.7,47.9z"/>
	<path class="st0" d="M55,41.1v6.2h3.4c0.9,0,1.5-0.1,1.8-0.4c0.4-0.3,0.6-1,0.7-1.9h0.4v5.4h-0.4c-0.1-0.7-0.2-1.2-0.3-1.5
		c-0.1-0.3-0.4-0.5-0.7-0.6c-0.3-0.2-0.8-0.2-1.5-0.2H55v5.1c0,0.7,0.1,1.1,0.1,1.2l0.3,0.3c0.2,0.1,0.5,0.1,0.9,0.1H59
		c0.9,0,1.5-0.1,1.9-0.2c0.4-0.1,0.8-0.3,1.1-0.7c0.5-0.5,1-1.2,1.5-2.1H64l-1.4,3.9H50.5v-0.4h0.6c0.4,0,0.7-0.1,1.1-0.3
		c0.2-0.1,0.4-0.3,0.5-0.6c0.1-0.2,0.1-0.7,0.1-1.5V42.9c0-1-0.1-1.6-0.3-1.9c-0.3-0.3-0.7-0.5-1.4-0.5h-0.6v-0.4h12.1l0.2,3.4h-0.5
		c-0.2-0.8-0.3-1.4-0.5-1.7c-0.2-0.3-0.5-0.6-0.8-0.7c-0.3-0.1-0.8-0.2-1.6-0.2H55L55,41.1z"/>
	<path class="st0" d="M80.5,55.9h-4.2L71,48.6c-0.4,0-0.7,0-1,0h-0.3h-0.3v4.6c0,1,0.1,1.6,0.3,1.9c0.3,0.3,0.7,0.5,1.3,0.5h0.6v0.4
		h-6.7v-0.4h0.6c0.7,0,1.1-0.2,1.4-0.7c0.2-0.2,0.2-0.8,0.2-1.7V43c0-1-0.1-1.6-0.3-1.9c-0.3-0.3-0.7-0.5-1.4-0.5h-0.6v-0.4h5.7
		c1.7,0,2.9,0.1,3.7,0.3c0.8,0.2,1.5,0.7,2,1.4s0.8,1.4,0.8,2.3c0,1-0.3,1.8-1,2.5c-0.6,0.7-1.6,1.2-2.9,1.5l3.3,4.5
		c0.7,1,1.4,1.7,1.9,2.1c0.5,0.3,1.2,0.6,2.1,0.7L80.5,55.9L80.5,55.9z M69.3,47.9h0.4H70c1.5,0,2.6-0.3,3.4-1
		c0.7-0.7,1.1-1.5,1.1-2.5c0-1-0.3-1.8-0.9-2.4c-0.6-0.6-1.4-0.9-2.4-0.9c-0.5,0-1.1,0.1-1.8,0.3L69.3,47.9L69.3,47.9z"/>
	<path class="st0" d="M90,55.9l-6.1-13.2v10.5c0,1,0.1,1.6,0.3,1.8c0.3,0.3,0.7,0.5,1.4,0.5h0.6v0.4h-5.5v-0.4h0.6
		c0.7,0,1.1-0.2,1.4-0.6c0.2-0.2,0.3-0.8,0.3-1.7V42.9c0-0.7-0.1-1.2-0.2-1.5c-0.1-0.2-0.3-0.4-0.6-0.6c-0.3-0.2-0.8-0.2-1.4-0.2
		v-0.4h4.5l5.6,12.3l5.6-12.3h4.4v0.4h-0.6c-0.7,0-1.2,0.2-1.5,0.6c-0.2,0.2-0.3,0.8-0.3,1.7v10.3c0,1,0.1,1.6,0.3,1.8
		c0.3,0.3,0.7,0.5,1.4,0.5h0.6v0.4h-6.6v-0.4h0.6c0.7,0,1.1-0.2,1.4-0.6c0.2-0.2,0.3-0.8,0.3-1.7V42.7l-6.1,13.2L90,55.9L90,55.9z"
		/>
	<path class="st0" d="M108.6,55.5v0.4h-6.7v-0.4h0.6c0.6,0,1.1-0.2,1.4-0.6c0.2-0.2,0.3-0.8,0.3-1.8V43c0-0.8-0.1-1.3-0.2-1.6
		c-0.1-0.2-0.2-0.3-0.5-0.5c-0.3-0.2-0.7-0.3-1.1-0.3h-0.6v-0.4h6.7v0.4H108c-0.6,0-1.1,0.2-1.4,0.6c-0.2,0.2-0.3,0.8-0.3,1.8v10.2
		c0,0.8,0.1,1.3,0.2,1.6c0.1,0.2,0.2,0.3,0.5,0.5c0.3,0.2,0.7,0.3,1.1,0.3H108.6L108.6,55.5z"/>
	<path class="st0" d="M121.6,39.9l0.4,5.4h-0.4c-0.5-1.6-1.1-2.8-2-3.5c-0.9-0.7-1.9-1.1-3.2-1.1c-1,0-2,0.3-2.8,0.8
		c-0.8,0.5-1.5,1.4-2,2.5c-0.5,1.2-0.7,2.6-0.7,4.3c0,1.4,0.2,2.6,0.7,3.7c0.5,1,1.1,1.9,2,2.4c0.9,0.6,2,0.8,3.1,0.8
		c1,0,1.9-0.2,2.7-0.7s1.6-1.3,2.5-2.6l0.3,0.2c-0.8,1.4-1.7,2.4-2.8,3c-1.1,0.6-2.3,1-3.7,1c-2.6,0-4.6-1-6-2.9
		c-1.1-1.4-1.6-3.1-1.6-5.1c0-1.6,0.3-3,1.1-4.3c0.7-1.3,1.6-2.3,2.9-3c1.2-0.7,2.5-1.1,4-1.1c1.1,0,2.3,0.3,3.3,0.8
		c0.3,0.2,0.6,0.2,0.7,0.2c0.2,0,0.4-0.1,0.6-0.2c0.2-0.2,0.3-0.5,0.5-0.8L121.6,39.9L121.6,39.9z"/>
	<path class="st0" d="M138,55.9h-4.2l-5.3-7.3c-0.4,0-0.7,0-1,0h-0.3h-0.3v4.6c0,1,0.1,1.6,0.3,1.9c0.3,0.3,0.7,0.5,1.3,0.5h0.6v0.4
		h-6.7v-0.4h0.6c0.7,0,1.1-0.2,1.4-0.7c0.2-0.2,0.2-0.8,0.2-1.7V43c0-1-0.1-1.6-0.3-1.9c-0.3-0.3-0.7-0.5-1.4-0.5h-0.6v-0.4h5.7
		c1.7,0,2.9,0.1,3.7,0.3c0.8,0.2,1.5,0.7,2,1.4c0.6,0.7,0.8,1.4,0.8,2.3c0,1-0.3,1.8-1,2.5c-0.6,0.7-1.6,1.2-2.9,1.5l3.3,4.5
		c0.7,1,1.4,1.7,1.9,2.1c0.5,0.3,1.2,0.6,2.1,0.7L138,55.9L138,55.9z M126.8,47.9h0.4h0.3c1.5,0,2.6-0.3,3.4-1
		c0.7-0.7,1.1-1.5,1.1-2.5c0-1-0.3-1.8-0.9-2.4c-0.6-0.6-1.4-0.9-2.4-0.9c-0.5,0-1.1,0.1-1.8,0.3L126.8,47.9L126.8,47.9z"/>
	<path class="st1" d="M154.3,38.2c0.4,0,0.8,0.1,1.1,0.3c0.4,0.2,0.7,0.5,0.9,0.8c0.2,0.4,0.3,0.8,0.3,1.2c0,0.4-0.1,0.8-0.3,1.2
		c-0.2,0.4-0.5,0.7-0.8,0.8c-0.4,0.2-0.8,0.3-1.2,0.3c-0.4,0-0.8-0.1-1.2-0.3c-0.4-0.2-0.7-0.5-0.8-0.8c-0.2-0.4-0.3-0.8-0.3-1.2
		c0-0.4,0.1-0.8,0.3-1.2c0.2-0.4,0.5-0.7,0.9-0.8S153.9,38.2,154.3,38.2L154.3,38.2z M154.3,38.4c-0.3,0-0.7,0.1-1.1,0.3
		c-0.3,0.2-0.6,0.5-0.8,0.8c-0.2,0.3-0.3,0.7-0.3,1.1s0.1,0.7,0.3,1.1c0.2,0.3,0.5,0.6,0.8,0.8c0.3,0.2,0.7,0.3,1.1,0.3
		s0.7-0.1,1.1-0.3c0.3-0.2,0.6-0.5,0.8-0.8c0.2-0.3,0.3-0.7,0.3-1.1s-0.1-0.7-0.3-1.1c-0.2-0.3-0.5-0.6-0.8-0.8
		C155,38.5,154.7,38.4,154.3,38.4L154.3,38.4z M153,39.1h1.3c0.3,0,0.6,0.1,0.7,0.2c0.2,0.2,0.2,0.3,0.2,0.5l-0.2,0.5
		c-0.1,0.1-0.3,0.2-0.6,0.3l0.7,1l0.2,0.2l0.2,0.1v0.1h-0.6l-1-1.4h-0.3v1l0.1,0.2l0.3,0.1v0.1h-1.2v-0.1l0.2-0.1l0.1-0.1v-0.3v-1.7
		v-0.3l-0.1-0.1l-0.2-0.1v-0.1H153z M153.8,40.4c0.3,0,0.5,0,0.6-0.1l0.3-0.2l0.1-0.3l-0.2-0.5c-0.1-0.1-0.3-0.2-0.5-0.2l-0.3,0.1
		L153.8,40.4L153.8,40.4z"/>
	<path class="st2" d="M136.5,48.1c0-4.5,3.7-8.2,8.2-8.2c4.5,0,8.2,3.7,8.2,8.2s-3.7,8.2-8.2,8.2C140.1,56.3,136.5,52.6,136.5,48.1
		L136.5,48.1z"/>
	<polygon class="st2" points="152.2,58.6 3.6,58.6 3.6,58 152.2,58 	"/>
</g>
</svg>
