<?xml version="1.0" encoding="utf-8"?>
<!-- Generator: Adobe Illustrator 19.0.1, SVG Export Plug-In . SVG Version: 6.00 Build 0)  -->
<svg version="1.1" id="Слой_1" xmlns="http://www.w3.org/2000/svg" xmlns:xlink="http://www.w3.org/1999/xlink" x="0px" y="0px"
	 viewBox="0 0 64 64" style="enable-background:new 0 0 64 64;" xml:space="preserve">
<style type="text/css">
	.st0{fill:url(#SVGID_1_);}
	.st1{fill:url(#SVGID_2_);stroke:#010202;}
</style>
<g>
	<g>
		
			<linearGradient id="SVGID_1_" gradientUnits="userSpaceOnUse" x1="1.3089" y1="62.2226" x2="51.6184" y2="11.5508" gradientTransform="matrix(1 0 0 -1 3.760000e-002 63.9346)">
			<stop  offset="0" style="stop-color:#F4AAA1"/>
			<stop  offset="0.5" style="stop-color:#E11E1D"/>
			<stop  offset="1" style="stop-color:#A21A16"/>
		</linearGradient>
		<path class="st0" d="M3.7,1.8h56.5c1.4,0,2.5,1.1,2.5,2.5v56.5c0,1.4-1.1,2.5-2.5,2.5H3.7c-1.4,0-2.5-1.1-2.5-2.5V4.3
			C1.2,2.9,2.4,1.8,3.7,1.8z"/>
	</g>
	<g>
		
			<radialGradient id="SVGID_2_" cx="-82.625" cy="231.5517" r="19.468" gradientTransform="matrix(2.1398 0 0 -2.3493 197.1428 562.6121)" gradientUnits="userSpaceOnUse">
			<stop  offset="0" style="stop-color:#FFFFFF"/>
			<stop  offset="0.1454" style="stop-color:#FFFFFF"/>
			<stop  offset="0.4281" style="stop-color:#CFCFCF"/>
			<stop  offset="0.6766" style="stop-color:#9F9F9F"/>
			<stop  offset="1" style="stop-color:#A1A0A0"/>
			<stop  offset="1" style="stop-color:#FFFFFF"/>
		</radialGradient>
		<path class="st1" d="M32,6.3c-8.7,0-19,15.7-18.8,31.3c0,9.9,5.1,20.9,18.8,21.1c14.3-0.3,18.9-11.2,18.8-21.1
			C50.8,21.5,40.3,6.2,32,6.3z"/>
	</g>
</g>
<g>
</g>
<g>
</g>
<g>
</g>
<g>
</g>
<g>
</g>
<g>
</g>
</svg>
