<?xml version="1.0" encoding="utf-8"?>
<!-- Generator: Adobe Illustrator 19.0.1, SVG Export Plug-In . SVG Version: 6.00 Build 0)  -->
<svg version="1.1" id="Слой_1" xmlns="http://www.w3.org/2000/svg" xmlns:xlink="http://www.w3.org/1999/xlink" x="0px" y="0px"
	 viewBox="0 0 64 64" style="enable-background:new 0 0 64 64;" xml:space="preserve">
<style type="text/css">
	.st0{fill:#3299CC;}
</style>
<g>
	<path class="st0" d="M3.6,10.3c0.5-0.2,1-0.3,1.6-0.3h53.9c0.6,0,1.1,0.1,1.6,0.3L36.5,33.1c-2.5,2.3-6.3,2.3-8.8,0L3.6,10.3z
		 M63,50.7c0.4-0.7,0.7-1.5,0.7-2.4V14.6c0-0.6-0.1-1.2-0.3-1.7L40.7,34.1L63,50.7z M38.7,36c-1.9,1.6-4.2,2.4-6.5,2.4
		c-2.3,0-4.7-0.8-6.5-2.4L3.4,52.6c0.5,0.2,1.2,0.4,1.8,0.4h53.9c0.6,0,1.2-0.1,1.8-0.4L38.7,36z M1,12.9c-0.2,0.5-0.3,1.1-0.3,1.7
		v33.8c0,0.9,0.3,1.7,0.7,2.4l22.3-16.6L1,12.9z M1,12.9"/>
</g>
<g>
</g>
<g>
</g>
<g>
</g>
<g>
</g>
<g>
</g>
<g>
</g>
</svg>
