<?xml version="1.0" encoding="utf-8"?>
<!-- Generator: Adobe Illustrator 19.0.1, SVG Export Plug-In . SVG Version: 6.00 Build 0)  -->
<svg version="1.1" id="Capa_1" xmlns="http://www.w3.org/2000/svg" xmlns:xlink="http://www.w3.org/1999/xlink" x="0px" y="0px"
	 viewBox="91 -91.1 246.1 246.1" style="enable-background:new 91 -91.1 246.1 246.1;" xml:space="preserve">
<style type="text/css">
	.st0{fill:#3399CC;}
</style>
<g>
	<g>
		<path class="st0" d="M118.6,128.8h3.3c-3.1-6.4-4.9-14.1-4.9-22.4V22.1c0-8.3,1.8-16,4.9-22.4h-3.3c-10.5,0-19.1,9.6-19.1,21.5
			v86.1C99.5,119.1,108,128.8,118.6,128.8z"/>
		<path class="st0" d="M170.2,128.8h139.3c10.5,0,19.1-9.6,19.1-21.5V21.2c0-11.9-8.5-21.5-19.1-21.5H298v-43
			c0-16.4-11.1-29.7-24.8-29.7H202c-13.7,0-24.8,13.3-24.8,29.7v43h-6.9c3.1,6.4,4.9,14.1,4.9,22.4v84.3
			C175.1,114.6,173.3,122.3,170.2,128.8z M290.5,113.6c-4.6,0-8.2-4.2-8.2-9.3c0-5.2,3.7-9.3,8.2-9.3c4.6,0,8.3,4.2,8.3,9.3
			C298.7,109.4,295,113.6,290.5,113.6z M300.6,45.5v35.3H194.5V45.5H300.6z M188.6-43.4c0-9.3,6-16.8,13.3-16.8h71.2
			c7.4,0,13.4,7.5,13.4,16.8V4c0,9.3-6,16.8-13.4,16.8H202c-7.4,0-13.3-7.6-13.3-16.8C188.6,4,188.6-43.4,188.6-43.4z"/>
		<path class="st0" d="M146.1,138.8c12.2,0,22-14.5,22-32.4V22.1c0-17.9-9.9-32.4-22-32.4c-12.2,0-22,14.5-22,32.4v84.3
			C124,124.3,133.9,138.8,146.1,138.8z"/>
		<path class="st0" d="M201.4-38.4h71.7c2.5,0,4.4-2.2,4.4-5c0-2.8-2-5-4.4-5h-71.7c-2.5,0-4.4,2.2-4.4,5
			C197-40.7,198.9-38.4,201.4-38.4z"/>
		<path class="st0" d="M201.4-15.2h71.7c2.5,0,4.4-2.2,4.4-5s-2-5-4.4-5h-71.7c-2.5,0-4.4,2.2-4.4,5C197-17.5,198.9-15.2,201.4-15.2
			z"/>
		<path class="st0" d="M201.4,8h71.7c2.5,0,4.4-2.2,4.4-5c0-2.8-2-5-4.4-5h-71.7c-2.5,0-4.4,2.3-4.4,5C197,5.8,198.9,8,201.4,8z"/>
	</g>
</g>
</svg>
