<?xml version="1.0" encoding="UTF-8"?>
<!DOCTYPE svg PUBLIC "-//W3C//DTD SVG 1.1//EN" "http://www.w3.org/Graphics/SVG/1.1/DTD/svg11.dtd">
<!-- Creator: CorelDRAW X6 -->
<svg xmlns="http://www.w3.org/2000/svg" xml:space="preserve" width="200px" height="200px" version="1.1" style="shape-rendering:geometricPrecision; text-rendering:geometricPrecision; image-rendering:optimizeQuality; fill-rule:evenodd; clip-rule:evenodd"
viewBox="0 0 200 200"
 xmlns:xlink="http://www.w3.org/1999/xlink">
 <defs>
  <style type="text/css">
   <![CDATA[
    .fil2 {fill:#373435}
    .fil0 {fill:#F58634}
    .fil1 {fill:#FEFEFE}
    .fil3 {fill:#373435;fill-rule:nonzero}
   ]]>
  </style>
 </defs>
 <g id="Слой_x0020_1">
  <metadata id="CorelCorpID_0Corel-Layer"/>
  <path class="fil0" d="M99 4c47,0 87,35 94,81 -2,-2 -6,-3 -10,-3l-16 0 0 35 13 0 0 -10 3 0c5,0 8,-1 11,-3 0,0 0,0 1,-1 -2,51 -44,92 -95,92 -52,0 -95,-43 -95,-95 0,-3 0,-6 0,-9l0 4 7 0 0 24 13 0 0 -24 7 0 0 -11 -25 0c8,-44 47,-78 94,-78l0 0zm-48 77c3,0 5,0 7,1 2,1 4,2 6,4 2,2 3,4 4,6 1,2 1,5 1,7 0,3 -1,6 -3,9 -2,3 -4,5 -7,7 -3,2 -6,2 -9,2 -3,0 -6,-1 -9,-2 -3,-2 -5,-4 -7,-7 -2,-3 -3,-6 -3,-9 0,-2 0,-5 1,-7 1,-2 2,-4 4,-6 2,-2 4,-3 6,-4 2,-1 5,-1 7,-1l0 0zm0 12c-2,0 -3,1 -4,2 -1,1 -2,3 -2,5 0,2 1,3 2,5 1,1 3,2 4,2 2,0 3,-1 4,-2 1,-1 2,-3 2,-5 0,-2 -1,-3 -2,-5 -1,-1 -3,-2 -4,-2zm28 24l0 -24 -7 0 0 -11 27 0 0 11 -7 0 0 24 -13 0 0 0zm38 -17c0,4 0,8 -1,11 -1,3 -2,4 -3,6 -2,1 -4,2 -7,2 -3,0 -4,0 -5,-1l0 -11c2,0 3,-1 3,-2 1,-1 1,-3 1,-5l0 -18 31 0 0 35 -13 0 0 -25 -6 0 0 8 0 0zm23 17l0 -35 23 0 0 10 -11 0 0 3 10 0 0 9 -10 0 0 4 11 0 0 9 -24 0 0 0zm40 -19l3 0c2,0 3,-1 3,-3 0,-2 -1,-3 -3,-3l-3 0 0 6 0 0z"/>
  <g id="_216312656">
   <path class="fil1" d="M28 138l5 -4 5 -3 5 -4c0,0 4,-2 5,-3 5,-5 11,-7 18,-8l10 -3 12 -2 9 2c0,0 8,5 8,6 0,1 7,18 7,18l1 15 -10 4 -9 5 -6 3 -10 1 -17 -2c0,0 -9,-2 -11,-2 -1,0 -9,0 -10,-1 -1,-1 -4,-5 -5,-6 0,-1 -4,-6 -5,-7 -1,-1 -4,-4 -4,-4 0,-1 2,-5 2,-5l0 0z"/>
   <g>
    <path class="fil2" d="M125 160c0,0 0,0 0,0 1,11 -7,8 -10,11l2 2c2,3 3,6 3,9l-3 -5 0 4 -3 -5 1 4c-1,-1 -3,-3 -4,-4l1 4c0,0 0,0 -1,0 -3,-4 -9,-8 -5,-12 11,-7 -3,-12 -10,-8 -6,4 -24,8 -47,1 -3,-1 -4,1 -4,4 0,4 -1,7 -4,9 0,0 0,-1 0,-2 0,-1 0,-1 0,-3 0,-2 -1,-3 -1,-3 -1,2 -1,4 -2,7 0,1 -1,1 -1,1 -1,-2 -1,-3 -2,-5 0,-2 0,-3 0,-3 0,1 -1,3 -1,5 0,1 -1,1 -1,2 0,0 0,-1 0,-1 -1,-3 1,-13 -2,-3 0,1 0,2 0,2l0 1c0,0 0,-1 0,-2 -1,-3 -1,-9 2,-11l2 -2c0,0 0,0 0,0 -9,5 -20,4 -25,2 -1,-1 -2,-1 -2,-1 9,0 15,-1 22,-6 -3,-4 -5,-9 -5,-14 9,-4 15,-9 23,-15 16,-10 31,-13 53,-12 19,1 30,4 37,17 0,0 0,-2 -3,-1 0,0 -1,1 -1,1 3,-2 5,3 8,-6 1,-5 15,-6 19,-5 1,0 2,0 1,2 -1,16 -19,23 -25,34 -3,4 -6,6 -11,7l0 0zm-74 -32c3,4 16,1 15,-4 0,-2 -1,-4 -2,-5 -1,-1 -2,-1 -3,-1 -5,1 -15,4 -10,11l0 0zm15 -10c2,-5 25,-8 26,-3 0,3 0,7 -2,8 -4,3 -27,4 -24,-5zm66 11c0,2 -4,6 -9,6 2,0 9,-2 10,-5l-2 -1zm-28 24l0 0c-3,-4 -10,-5 -12,2 0,-13 31,0 6,-26 -1,-1 -2,-2 -4,-2 -2,0 -3,1 -5,3 -2,3 5,7 3,10 0,0 -12,4 -15,6 -2,2 -3,4 -2,7 0,1 -1,3 -1,3 0,0 0,-3 0,-4 0,-4 2,-6 3,-9 0,-2 2,-3 2,-4 2,-3 6,-5 7,-7 6,-8 -13,-6 -18,-4l-9 4c-5,1 -8,1 -11,5 -2,3 -7,5 -10,8l-2 2c0,0 0,-2 1,-3 2,-3 7,-8 10,-10 4,-2 2,-7 -3,-8 -2,0 -3,0 -4,1 -7,5 -15,10 -14,15 5,0 8,3 8,9 7,-2 4,7 5,5 2,-4 12,-3 13,2l0 1c7,-8 12,-1 13,-1 7,8 29,6 25,-5 0,-1 1,1 1,1 5,-8 10,-4 12,-3l0 0zm-34 1c-7,2 -33,3 -21,-8 0,0 1,-1 2,-2l0 0c-1,1 -2,2 -2,3 -1,8 15,8 20,7l0 0z"/>
    <path class="fil1" d="M145 122c1,0 2,0 2,0 0,1 0,1 -1,2 -1,0 -2,0 -2,0 0,-1 0,-1 1,-2z"/>
   </g>
  </g>
  <g id="_216313584">
   <path class="fil1" d="M28 138l5 -4 5 -3 5 -4c0,0 4,-2 5,-3 5,-5 11,-7 18,-8l10 -3 12 -2 9 2c0,0 8,5 8,6 0,1 7,18 7,18l1 15 -10 4 -9 5 -6 3 -10 1 -17 -2c0,0 -9,-2 -11,-2 -1,0 -9,0 -10,-1 -1,-1 -4,-5 -5,-6 0,-1 -4,-6 -5,-7 -1,-1 -4,-4 -4,-4 0,-1 2,-5 2,-5l0 0z"/>
   <g>
    <path class="fil2" d="M125 160c0,0 0,0 0,0 1,11 -7,8 -10,11l2 2c2,3 3,6 3,9l-3 -5 0 4 -3 -5 1 4c-1,-1 -3,-3 -4,-4l1 4c0,0 0,0 -1,0 -3,-4 -9,-8 -5,-12 11,-7 -3,-12 -10,-8 -6,4 -24,8 -47,1 -3,-1 -4,1 -4,4 0,4 -1,7 -4,9 0,0 0,-1 0,-2 0,-1 0,-1 0,-3 0,-2 -1,-3 -1,-3 -1,2 -1,4 -2,7 0,1 -1,1 -1,1 -1,-2 -1,-3 -2,-5 0,-2 0,-3 0,-3 0,1 -1,3 -1,5 0,1 -1,1 -1,2 0,0 0,-1 0,-1 -1,-3 1,-13 -2,-3 0,1 0,2 0,2l0 1c0,0 0,-1 0,-2 -1,-3 -1,-9 2,-11l2 -2c0,0 0,0 0,0 -9,5 -20,4 -25,2 -1,-1 -2,-1 -2,-1 9,0 15,-1 22,-6 -3,-4 -5,-9 -5,-14 9,-4 15,-9 23,-15 16,-10 31,-13 53,-12 19,1 30,4 37,17 0,0 0,-2 -3,-1 0,0 -1,1 -1,1 3,-2 5,3 8,-6 1,-5 15,-6 19,-5 1,0 2,0 1,2 -1,16 -19,23 -25,34 -3,4 -6,6 -11,7l0 0zm-74 -32c3,4 16,1 15,-4 0,-2 -1,-4 -2,-5 -1,-1 -2,-1 -3,-1 -5,1 -15,4 -10,11l0 0zm15 -10c2,-5 25,-8 26,-3 0,3 0,7 -2,8 -4,3 -27,4 -24,-5zm66 11c0,2 -4,6 -9,6 2,0 9,-2 10,-5l-2 -1zm-28 24l0 0c-3,-4 -10,-5 -12,2 0,-13 31,0 6,-26 -1,-1 -2,-2 -4,-2 -2,0 -3,1 -5,3 -2,3 5,7 3,10 0,0 -12,4 -15,6 -2,2 -3,4 -2,7 0,1 -1,3 -1,3 0,0 0,-3 0,-4 0,-4 2,-6 3,-9 0,-2 2,-3 2,-4 2,-3 6,-5 7,-7 6,-8 -13,-6 -18,-4l-9 4c-5,1 -8,1 -11,5 -2,3 -7,5 -10,8l-2 2c0,0 0,-2 1,-3 2,-3 7,-8 10,-10 4,-2 2,-7 -3,-8 -2,0 -3,0 -4,1 -7,5 -15,10 -14,15 5,0 8,3 8,9 7,-2 4,7 5,5 2,-4 12,-3 13,2l0 1c7,-8 12,-1 13,-1 7,8 29,6 25,-5 0,-1 1,1 1,1 5,-8 10,-4 12,-3l0 0zm-34 1c-7,2 -33,3 -21,-8 0,0 1,-1 2,-2l0 0c-1,1 -2,2 -2,3 -1,8 15,8 20,7l0 0z"/>
    <path class="fil1" d="M145 122c1,0 2,0 2,0 0,1 0,1 -1,2 -1,0 -2,0 -2,0 0,-1 0,-1 1,-2z"/>
   </g>
  </g>
  <g id="_123380800">
   <path class="fil3" d="M16 69c0,-2 1,-4 2,-5 1,-1 3,-2 5,-2 1,0 2,0 3,1 1,1 2,1 2,2 1,1 1,2 1,3 0,1 0,2 -1,4 -1,1 -1,2 -2,2 -1,1 -2,1 -3,1 -1,0 -2,0 -3,-1 -1,-1 -2,-1 -2,-2 0,-1 -1,-2 -1,-3zm2 0c0,2 0,3 1,4 1,1 2,1 3,1 1,0 2,0 3,-1 1,-1 1,-2 1,-4 0,-1 0,-2 -1,-3 0,-1 -1,-1 -2,-2 -1,0 -1,-1 -2,-1 -1,0 -2,0 -3,1 -1,1 -1,2 -1,4z"/>
   <path id="1" class="fil3" d="M31 69c0,-2 1,-4 2,-5 1,-1 3,-2 5,-2 1,0 2,0 3,1 1,1 2,1 2,2 1,1 1,2 1,3 0,1 0,2 -1,4 -1,1 -1,2 -2,2 -1,1 -2,1 -3,1 -1,0 -2,0 -3,-1 -1,-1 -2,-1 -2,-2 0,-1 -1,-2 -1,-3zm2 0c0,2 0,3 1,4 1,1 2,1 3,1 1,0 2,0 3,-1 1,-1 1,-2 1,-4 0,-1 0,-2 -1,-3 0,-1 -1,-1 -2,-2 -1,0 -1,-1 -2,-1 -1,0 -2,0 -3,1 -1,1 -1,2 -1,4z"/>
   <path id="2" class="fil3" d="M46 69c0,-2 1,-4 2,-5 1,-1 3,-2 5,-2 1,0 2,0 3,1 1,1 2,1 2,2 1,1 1,2 1,3 0,1 0,2 -1,4 -1,1 -1,2 -2,2 -1,1 -2,1 -3,1 -1,0 -2,0 -3,-1 -1,-1 -2,-1 -2,-2 0,-1 -1,-2 -1,-3zm2 0c0,2 0,3 1,4 1,1 2,1 3,1 1,0 2,0 3,-1 1,-1 1,-2 1,-4 0,-1 0,-2 -1,-3 0,-1 -1,-1 -2,-2 -1,0 -1,-1 -2,-1 -1,0 -2,0 -3,1 -1,1 -1,2 -1,4z"/>
  </g>
  <polygon class="fil3" points="122,108 122,99 118,99 118,98 126,98 126,99 123,99 123,108 "/>
  <path id="1" class="fil3" d="M128 108l0 -10 4 0c1,0 1,0 1,0 0,0 1,0 1,0 0,0 1,1 1,1 0,0 0,1 0,1 0,1 0,2 -1,2 -1,1 -1,1 -3,1l-2 0 0 4 -1 0zm1 -5l3 0c1,0 1,0 2,0 0,0 1,-1 1,-1 0,0 0,-1 0,-1 0,0 0,0 -1,-1 0,0 -1,0 -1,0l-2 0 0 3z"/>
  <path id="2" class="fil3" d="M141 102l0 1 4 0c0,1 0,2 -1,3 -1,1 -1,1 -2,1 -2,0 -3,-1 -3,-2l-1 0c1,2 2,3 4,3 2,0 3,0 3,-1 1,-1 1,-2 1,-4 0,-1 0,-2 -1,-2 0,-1 -1,-1 -2,-2 -1,0 -2,-1 -2,-1 -1,0 -2,0 -3,1 -1,0 -1,1 -1,2l1 0c0,-1 1,-2 3,-2 1,0 2,0 2,1 1,1 1,1 1,2l-4 0z"/>
  <path id="3" class="fil3" d="M148 98l1 0 0 8 5 -8 1 0 0 10 -1 0 0 -8 -5 8 -1 0 0 -10zm5 -2l1 0c0,1 0,1 -1,1 0,0 -1,0 -1,0 -1,0 -1,0 -1,0 0,0 -1,-1 -1,-1l1 0c0,0 0,1 0,1 0,0 0,0 1,0 0,0 1,0 1,0 0,0 0,0 0,-1z"/>
  <path id="4" class="fil3" d="M159 98l6 0 0 9 1 0 0 3 -1 0 0 -2 -6 0 0 2 -1 0 0 -3 1 0c1,-1 1,-4 1,-7l0 -1zm5 1l-3 0 0 0c0,1 0,2 0,3 0,1 0,3 -1,4l4 0 0 -7z"/>
 </g>
</svg>
