<?xml version="1.0" encoding="utf-8"?>
<!-- Generator: Adobe Illustrator 19.0.1, SVG Export Plug-In . SVG Version: 6.00 Build 0)  -->
<svg version="1.1" id="Слой_1" xmlns="http://www.w3.org/2000/svg" xmlns:xlink="http://www.w3.org/1999/xlink" x="0px" y="0px"
	 viewBox="0 0 64 64" style="enable-background:new 0 0 64 64;" xml:space="preserve">
<style type="text/css">
	.st0{fill:#33A6DE;}
	.st1{fill:url(#SVGID_1_);}
	.st2{opacity:0.83;fill:url(#SVGID_2_);}
	.st3{fill:#FFFFFF;stroke:#33A6DE;}
</style>
<path class="st0" d="M60.8,38.4c0.4-2,0.7-4.1,0.7-6.3c0-16.2-13.2-29.4-29.4-29.4c-1.7,0-3.4,0.1-5,0.4c-2.6-1.7-5.7-2.6-9.1-2.6
	c-9.4,0-17,7.6-17,17c0,3.1,0.9,6.1,2.3,8.6c-0.4,1.9-0.6,3.9-0.6,5.9c0,16.2,13.2,29.4,29.4,29.4c1.8,0,3.6-0.2,5.4-0.5
	c2.4,1.3,5.1,2,8.1,2c9.4,0,17-7.6,17-17C62.6,43.2,61.9,40.7,60.8,38.4z"/>
<linearGradient id="SVGID_1_" gradientUnits="userSpaceOnUse" x1="31.7535" y1="60.6769" x2="31.7535" y2="2.8231">
	<stop  offset="0" style="stop-color:#FFFFFF"/>
	<stop  offset="7.792971e-002" style="stop-color:#CFEAF7"/>
	<stop  offset="0.1584" style="stop-color:#A6D8F1"/>
	<stop  offset="0.2437" style="stop-color:#82C9EB"/>
	<stop  offset="0.3331" style="stop-color:#66BCE6"/>
	<stop  offset="0.4281" style="stop-color:#4FB2E3"/>
	<stop  offset="0.531" style="stop-color:#3FABE0"/>
	<stop  offset="0.6479" style="stop-color:#36A7DE"/>
	<stop  offset="0.809" style="stop-color:#33A6DE"/>
</linearGradient>
<path class="st1" d="M3.3,17.5c0,2.6,0.7,5.2,2,7.4l0.5,0.8l-0.2,0.9C5.2,28.4,5,30.2,5,32.1C5,47,17.2,59.1,32.1,59.1
	c1.7,0,3.3-0.2,5-0.5l0.8-0.1l0.7,0.4c2.1,1.1,4.5,1.7,7,1.7c8.1,0,14.7-6.6,14.7-14.7c0-2.3-0.5-4.5-1.5-6.5l-0.4-0.7l0.2-0.8
	c0.4-1.9,0.6-3.9,0.6-5.8C59.2,17.2,47,5,32.1,5c-1.5,0-3.1,0.1-4.6,0.4l-0.9,0.2l-0.8-0.5c-2.3-1.5-5.1-2.3-7.8-2.3
	C9.9,2.8,3.3,9.4,3.3,17.5z"/>
<linearGradient id="SVGID_2_" gradientUnits="userSpaceOnUse" x1="3.2634" y1="20.7762" x2="58.4196" y2="20.7762">
	<stop  offset="0" style="stop-color:#FFFFFF"/>
	<stop  offset="1" style="stop-color:#33A6DE"/>
</linearGradient>
<path class="st2" d="M5.7,25.8l-0.2,0.9C5.2,28.4,5,30.2,5,32.1c0,2.3,0.3,4.5,0.8,6.7c13.3-6.3,30.6-11.5,52.6-12.9
	C55.6,13.9,44.9,5,32.1,5c-1.5,0-3.1,0.1-4.6,0.4l-0.9,0.2l-0.8-0.5c-2.3-1.5-5.1-2.3-7.8-2.3C9.9,2.8,3.3,9.4,3.3,17.5
	c0,2.6,0.7,5.2,2,7.4L5.7,25.8z"/>
<path class="st3" d="M23.3,12.8L23.3,12.8c-2.5,0.9-4.4,2.2-5.7,4c-1.3,1.7-2,3.7-2,5.9c0,2.3,0.6,4.3,1.9,5.9
	c1.2,1.6,2.9,2.8,5,3.7c2.1,0.9,4.7,1.7,7.7,2.3c2.2,0.5,4.1,0.9,5.4,1.3c1.3,0.4,2.3,1,3.1,1.7c0.8,0.7,1.1,1.6,1.1,2.8
	c0,1.5-0.7,2.7-2.2,3.7c-1.5,1-3.5,1.5-5.9,1.5c-1.8,0-3.2-0.3-4.3-0.8c-1.1-0.5-1.9-1.1-2.5-1.9c-0.6-0.8-1.2-1.8-1.7-3
	c-0.5-1.1-1-1.9-1.7-2.5c-0.7-0.6-1.6-0.9-2.6-0.9c-1.2,0-2.3,0.4-3.1,1.1c-0.8,0.8-1.2,1.7-1.2,2.8c0,1.7,0.6,3.5,1.9,5.3
	c1.2,1.8,2.9,3.2,4.8,4.3c2.8,1.5,6.3,2.2,10.5,2.2c3.5,0,6.6-0.5,9.2-1.6c2.6-1.1,4.6-2.6,6-4.5c1.4-1.9,2.1-4.1,2.1-6.6
	c0-2-0.4-3.8-1.2-5.2c-0.8-1.4-1.9-2.6-3.3-3.5c-1.4-0.9-3.1-1.7-5-2.3c-1.9-0.6-4.1-1.2-6.5-1.7c-1.9-0.4-3.3-0.8-4.1-1
	c-0.8-0.2-1.6-0.5-2.4-0.9c-0.7-0.4-1.3-0.8-1.8-1.3c-0.4-0.5-0.6-1-0.6-1.7c0-1.1,0.6-2,1.8-2.8c1.3-0.8,3-1.3,5.1-1.3
	c2.3,0,3.9,0.4,4.9,1.1c1,0.8,1.9,1.9,2.6,3.3c0.6,1.1,1.2,1.8,1.8,2.3c0.6,0.5,1.4,0.8,2.5,0.8c1.2,0,2.2-0.4,3-1.3
	c0.8-0.8,1.2-1.8,1.2-2.8c0-1.1-0.3-2.2-0.9-3.4c-0.6-1.1-1.6-2.2-2.9-3.2c-1.3-1-2.9-1.8-4.9-2.4c-1.9-0.6-4.2-0.9-6.9-0.9
	C28.6,11.4,25.7,11.9,23.3,12.8z"/>
<g>
</g>
<g>
</g>
<g>
</g>
<g>
</g>
<g>
</g>
<g>
</g>
</svg>
